# xmcd
#
# Track frame offsets:
#	150
#	42487
#	88881
#	122011
#	187547
#	269244
#
# Disc length: 4100 seconds
#
# Revision: 0
# Processed by: cddbd v1.5.1PL2 Copyright (c) Steve Scherf et al.
# Submitted via: EasyCDDAExtractor 8.2.3.1
#
DISCID=51100206
DTITLE=Derek Trucks Band - The Georgia Theater - Athens, GA 10-23-99 disc 2
DYEAR=1999
DGENRE=Blues
TTITLE0=555 Lake ->
TTITLE1=Tutu
TTITLE2=Travelin'  South
TTITLE3=Chicken
TTITLE4=Everything Is Everything
TTITLE5=Look-Ka-Py-Py
EXTD=
EXTT0=
EXTT1=
EXTT2=
EXTT3=
EXTT4=
EXTT5=
PLAYORDER=
